# xmcd
#
# Track frame offsets:
#	150
#	19487
#	40997
#	58282
#	75520
#	95225
#	113447
#	134627
#	152352
#
# Disc length: 2073 seconds
#
# Revision: 1
# Processed by: cddbd v1.5.2PL0 Copyright (c) Steve Scherf et al.
# Submitted via: EasyCDDAExtractor 16.0.6.1
#
DISCID=74081709
DTITLE=박진영 - BLUE CITY
DYEAR=1900
DGENRE=Pop
TTITLE0=날 떠나지마
TTITLE1=너에게 묻고싶어
TTITLE2=마이 걸 9My girl)
TTITLE3=아픔속에서
TTITLE4=너의 뒤에서
TTITLE5=사랑일년
TTITLE6=아직 기다리는지
TTITLE7=사랑때문에
TTITLE8=너에게 묻고싶어
EXTD=
EXTT0=
EXTT1=
EXTT2=
EXTT3=
EXTT4=
EXTT5=
EXTT6=
EXTT7=
EXTT8=
PLAYORDER=
